<mxfile host="Electron" agent="Mozilla/5.0 (Windows NT 10.0; Win64; x64) AppleWebKit/537.36 (KHTML, like Gecko) draw.io/24.7.17 Chrome/128.0.6613.36 Electron/32.0.1 Safari/537.36" version="24.7.17">
  <diagram id="rexrwLsXHAZbl64Zjwn3" name="Página-2">
    <mxGraphModel dx="1434" dy="836" grid="1" gridSize="10" guides="1" tooltips="1" connect="1" arrows="1" fold="1" page="1" pageScale="1" pageWidth="827" pageHeight="1169" math="0" shadow="0">
      <root>
        <mxCell id="0" />
        <mxCell id="1" parent="0" />
        <mxCell id="YuCbeWEkrP41lM6saXJN-6" style="edgeStyle=orthogonalEdgeStyle;rounded=0;orthogonalLoop=1;jettySize=auto;html=1;" edge="1" parent="1" source="_cHX1pu1i2-SjPh0qAWw-1">
          <mxGeometry relative="1" as="geometry">
            <mxPoint x="170" y="264.25" as="targetPoint" />
          </mxGeometry>
        </mxCell>
        <mxCell id="qknHf3zBaPCxYY2Pk5oE-1" value="upload" style="edgeLabel;html=1;align=center;verticalAlign=middle;resizable=0;points=[];" vertex="1" connectable="0" parent="YuCbeWEkrP41lM6saXJN-6">
          <mxGeometry x="-0.2625" y="-1" relative="1" as="geometry">
            <mxPoint as="offset" />
          </mxGeometry>
        </mxCell>
        <mxCell id="_cHX1pu1i2-SjPh0qAWw-1" value="usuário" style="image;aspect=fixed;perimeter=ellipsePerimeter;html=1;align=center;shadow=0;dashed=0;spacingTop=3;image=img/lib/active_directory/user_accounts.svg;" vertex="1" parent="1">
          <mxGeometry x="50" y="240" width="50" height="48.5" as="geometry" />
        </mxCell>
        <mxCell id="YuCbeWEkrP41lM6saXJN-7" style="edgeStyle=orthogonalEdgeStyle;rounded=0;orthogonalLoop=1;jettySize=auto;html=1;" edge="1" parent="1" source="gOO_TSa0jfehSItSjJUC-1">
          <mxGeometry relative="1" as="geometry">
            <mxPoint x="340" y="264.75" as="targetPoint" />
          </mxGeometry>
        </mxCell>
        <mxCell id="3_ZM70SBMhtf63y2m3_N-1" value="Ingestão" style="edgeLabel;html=1;align=center;verticalAlign=middle;resizable=0;points=[];" vertex="1" connectable="0" parent="YuCbeWEkrP41lM6saXJN-7">
          <mxGeometry x="-0.0961" y="2" relative="1" as="geometry">
            <mxPoint as="offset" />
          </mxGeometry>
        </mxCell>
        <mxCell id="gOO_TSa0jfehSItSjJUC-1" value="EC2" style="outlineConnect=0;dashed=0;verticalLabelPosition=bottom;verticalAlign=top;align=center;html=1;shape=mxgraph.aws3.ecs;fillColor=#F58534;gradientColor=none;" vertex="1" parent="1">
          <mxGeometry x="180" y="231" width="72" height="67.5" as="geometry" />
        </mxCell>
        <mxCell id="YuCbeWEkrP41lM6saXJN-8" style="edgeStyle=orthogonalEdgeStyle;rounded=0;orthogonalLoop=1;jettySize=auto;html=1;entryX=0;entryY=0.483;entryDx=0;entryDy=0;entryPerimeter=0;" edge="1" parent="1" source="TqX675kUZ0z7o8ROKibf-3" target="ltnM933Z94qgRgrSVi3c-1">
          <mxGeometry relative="1" as="geometry">
            <mxPoint x="510" y="264.75" as="targetPoint" />
          </mxGeometry>
        </mxCell>
        <mxCell id="8_SIlg7oKQHJCp0eerL9-1" value="Arquivo Morto&lt;span style=&quot;white-space: pre;&quot;&gt;&#x9;&lt;/span&gt;" style="edgeLabel;html=1;align=center;verticalAlign=middle;resizable=0;points=[];" vertex="1" connectable="0" parent="YuCbeWEkrP41lM6saXJN-8">
          <mxGeometry x="0.1923" y="2" relative="1" as="geometry">
            <mxPoint x="-16" y="1" as="offset" />
          </mxGeometry>
        </mxCell>
        <mxCell id="YuCbeWEkrP41lM6saXJN-10" style="edgeStyle=orthogonalEdgeStyle;rounded=0;orthogonalLoop=1;jettySize=auto;html=1;" edge="1" parent="1" source="TqX675kUZ0z7o8ROKibf-3">
          <mxGeometry relative="1" as="geometry">
            <mxPoint x="380" y="430" as="targetPoint" />
            <Array as="points">
              <mxPoint x="380" y="371" />
              <mxPoint x="381" y="371" />
            </Array>
          </mxGeometry>
        </mxCell>
        <mxCell id="TqX675kUZ0z7o8ROKibf-3" value="S3" style="outlineConnect=0;dashed=0;verticalLabelPosition=bottom;verticalAlign=top;align=center;html=1;shape=mxgraph.aws3.s3;fillColor=#E05243;gradientColor=none;" vertex="1" parent="1">
          <mxGeometry x="350" y="218.25" width="76.5" height="93" as="geometry" />
        </mxCell>
        <mxCell id="ltnM933Z94qgRgrSVi3c-1" value="Lifecycle" style="sketch=0;html=1;aspect=fixed;strokeColor=none;shadow=0;fillColor=#3B8DF1;verticalAlign=top;labelPosition=center;verticalLabelPosition=bottom;shape=mxgraph.gcp2.lifecycle" vertex="1" parent="1">
          <mxGeometry x="550" y="214.75" width="100" height="100" as="geometry" />
        </mxCell>
        <mxCell id="YuCbeWEkrP41lM6saXJN-1" value="&lt;font style=&quot;vertical-align: inherit;&quot; dir=&quot;auto&quot;&gt;&lt;font style=&quot;vertical-align: inherit;&quot; dir=&quot;auto&quot;&gt;EC2&lt;/font&gt;&lt;/font&gt;" style="outlineConnect=0;dashed=0;verticalLabelPosition=bottom;verticalAlign=top;align=center;html=1;shape=mxgraph.aws3.ec2;fillColor=#F58534;gradientColor=none;" vertex="1" parent="1">
          <mxGeometry x="690" y="340" width="76.5" height="93" as="geometry" />
        </mxCell>
        <mxCell id="YuCbeWEkrP41lM6saXJN-9" style="edgeStyle=orthogonalEdgeStyle;rounded=0;orthogonalLoop=1;jettySize=auto;html=1;" edge="1" parent="1" source="YuCbeWEkrP41lM6saXJN-2">
          <mxGeometry relative="1" as="geometry">
            <mxPoint x="380" y="330" as="targetPoint" />
          </mxGeometry>
        </mxCell>
        <mxCell id="sq9p6HO57X5-VJm_RHuV-4" value="Segurança&lt;div&gt;Criptografada&lt;/div&gt;" style="edgeLabel;html=1;align=center;verticalAlign=middle;resizable=0;points=[];" vertex="1" connectable="0" parent="YuCbeWEkrP41lM6saXJN-9">
          <mxGeometry x="-0.7147" y="1" relative="1" as="geometry">
            <mxPoint as="offset" />
          </mxGeometry>
        </mxCell>
        <mxCell id="YuCbeWEkrP41lM6saXJN-2" value="&lt;font style=&quot;vertical-align: inherit;&quot; dir=&quot;auto&quot;&gt;&lt;font style=&quot;vertical-align: inherit;&quot; dir=&quot;auto&quot;&gt;IAM&lt;/font&gt;&lt;/font&gt;" style="outlineConnect=0;dashed=0;verticalLabelPosition=bottom;verticalAlign=top;align=center;html=1;shape=mxgraph.aws3.iam;fillColor=#759C3E;gradientColor=none;" vertex="1" parent="1">
          <mxGeometry x="353" y="632" width="42" height="81" as="geometry" />
        </mxCell>
        <mxCell id="YuCbeWEkrP41lM6saXJN-3" value="&lt;font style=&quot;vertical-align: inherit;&quot; dir=&quot;auto&quot;&gt;&lt;font style=&quot;vertical-align: inherit;&quot; dir=&quot;auto&quot;&gt;Cloudwatch&lt;/font&gt;&lt;/font&gt;" style="outlineConnect=0;dashed=0;verticalLabelPosition=bottom;verticalAlign=top;align=center;html=1;shape=mxgraph.aws3.cloudwatch;fillColor=#759C3E;gradientColor=none;" vertex="1" parent="1">
          <mxGeometry x="514" y="620" width="82.5" height="93" as="geometry" />
        </mxCell>
        <mxCell id="YuCbeWEkrP41lM6saXJN-4" value="Amazon DynamoDB" style="sketch=0;outlineConnect=0;fontColor=#232F3E;gradientColor=none;strokeColor=#ffffff;fillColor=#232F3E;dashed=0;verticalLabelPosition=middle;verticalAlign=bottom;align=center;html=1;whiteSpace=wrap;fontSize=10;fontStyle=1;spacing=3;shape=mxgraph.aws4.productIcon;prIcon=mxgraph.aws4.dynamodb;" vertex="1" parent="1">
          <mxGeometry x="334" y="440" width="80" height="110" as="geometry" />
        </mxCell>
        <mxCell id="YuCbeWEkrP41lM6saXJN-11" style="edgeStyle=orthogonalEdgeStyle;rounded=0;orthogonalLoop=1;jettySize=auto;html=1;" edge="1" parent="1">
          <mxGeometry relative="1" as="geometry">
            <mxPoint x="596.5" y="500.65" as="sourcePoint" />
            <mxPoint x="728.3000000000002" y="455.35" as="targetPoint" />
          </mxGeometry>
        </mxCell>
        <mxCell id="sq9p6HO57X5-VJm_RHuV-2" value="Recuperação" style="edgeLabel;html=1;align=center;verticalAlign=middle;resizable=0;points=[];" vertex="1" connectable="0" parent="YuCbeWEkrP41lM6saXJN-11">
          <mxGeometry x="0.6784" y="1" relative="1" as="geometry">
            <mxPoint as="offset" />
          </mxGeometry>
        </mxCell>
        <mxCell id="YuCbeWEkrP41lM6saXJN-5" value="&lt;font style=&quot;vertical-align: inherit;&quot; dir=&quot;auto&quot;&gt;&lt;font style=&quot;vertical-align: inherit;&quot; dir=&quot;auto&quot;&gt;SNS&lt;/font&gt;&lt;/font&gt;" style="outlineConnect=0;dashed=0;verticalLabelPosition=bottom;verticalAlign=top;align=center;html=1;shape=mxgraph.aws3.sns;fillColor=#D9A741;gradientColor=none;" vertex="1" parent="1">
          <mxGeometry x="520" y="450" width="76.5" height="76.5" as="geometry" />
        </mxCell>
        <mxCell id="H_hJUp9fGtLubE6EYmIo-1" value="" style="endArrow=classic;html=1;rounded=0;" edge="1" parent="1" source="TqX675kUZ0z7o8ROKibf-3">
          <mxGeometry width="50" height="50" relative="1" as="geometry">
            <mxPoint x="500" y="520" as="sourcePoint" />
            <mxPoint x="540" y="605" as="targetPoint" />
          </mxGeometry>
        </mxCell>
        <mxCell id="sq9p6HO57X5-VJm_RHuV-3" value="Monitoramento" style="edgeLabel;html=1;align=center;verticalAlign=middle;resizable=0;points=[];" vertex="1" connectable="0" parent="H_hJUp9fGtLubE6EYmIo-1">
          <mxGeometry x="0.3484" y="1" relative="1" as="geometry">
            <mxPoint x="2" y="21" as="offset" />
          </mxGeometry>
        </mxCell>
        <mxCell id="H_hJUp9fGtLubE6EYmIo-2" value="" style="endArrow=classic;html=1;rounded=0;" edge="1" parent="1">
          <mxGeometry width="50" height="50" relative="1" as="geometry">
            <mxPoint x="430" y="300" as="sourcePoint" />
            <mxPoint x="560" y="440" as="targetPoint" />
          </mxGeometry>
        </mxCell>
        <mxCell id="sq9p6HO57X5-VJm_RHuV-1" value="Notificação" style="edgeLabel;html=1;align=center;verticalAlign=middle;resizable=0;points=[];" vertex="1" connectable="0" parent="H_hJUp9fGtLubE6EYmIo-2">
          <mxGeometry x="-0.0745" y="1" relative="1" as="geometry">
            <mxPoint as="offset" />
          </mxGeometry>
        </mxCell>
      </root>
    </mxGraphModel>
  </diagram>
</mxfile>
